# xmcd CD database file
#
# Track frame offsets:
#	150
#	16104
#	33819
#	52742
#	79661
#	96193
#	113177
#	130115
#	140417
#	160033
#	180076
#	197017
#	224650
#	243912
#	263039
#
# Disc length: 3741 seconds
#
# Revision: 0
# Processed by: cddbd v1.4PL0 Copyright (c) Steve Scherf et al.
# Submitted via: CDex 1.51
#
DISCID=b60e9b0f
DTITLE=Marc G. Quintilla - Heart Strings -- Nagaraj Jois
DYEAR=2004
DGENRE=Blues
TTITLE0=Unchained Melody
TTITLE1=Everything I Do I Do It For You
TTITLE2=Careless Whisper
TTITLE3=Still Loving You
TTITLE4=When A Man Loves Woman
TTITLE5=Celtic Dreams
TTITLE6=Eternal Flame
TTITLE7=What A Wonderful World
TTITLE8=Right Here Waiting
TTITLE9=Hero
TTITLE10=Lady In Red
TTITLE11=Nikita
TTITLE12=The Power Of Love
TTITLE13=Endless Love
TTITLE14=Up Where We Belong
EXTD=YEAR: 2004
EXTT0=
EXTT1=
EXTT2=
EXTT3=
EXTT4=
EXTT5=
EXTT6=
EXTT7=
EXTT8=
EXTT9=
EXTT10=
EXTT11=
EXTT12=
EXTT13=
EXTT14=
PLAYORDER=
